<svg width="88" height="24" viewBox="0 0 88 24" fill="none" xmlns="http://www.w3.org/2000/svg">
<g clip-path="url(#clip0_47_32)">
<path d="M10.4375 18.5L4.75 15.4375V8.4375L10.4375 5.375L16.125 8.4375V13.6875" stroke="#C7C7D3" stroke-width="2" stroke-linecap="round" stroke-linejoin="round"/>
<path d="M16.125 4.5L21.8125 7.5625V14.5625L16.125 17.625L10.4375 14.5625V9.3125" stroke="#C7C7D3" stroke-width="2" stroke-linecap="round" stroke-linejoin="round"/>
<path d="M33.6436 7.86621C33.6924 7.96387 33.7168 8.09326 33.7168 8.25439C33.7168 8.41064 33.6362 8.58887 33.4751 8.78906C33.6021 8.9209 33.7632 9.07471 33.9585 9.25049C34.1587 9.42139 34.3516 9.60938 34.5371 9.81445C34.9863 10.3174 35.2109 10.7983 35.2109 11.2573C35.2109 11.5601 35.0034 11.9287 34.5884 12.3633C34.4614 12.5 34.3223 12.627 34.1709 12.7441C34.6787 12.5488 35.2891 12.1606 36.002 11.5796L36.8589 10.8765C37.3569 10.4614 37.689 10.2222 37.855 10.1587C38.0259 10.0952 38.1797 10.0635 38.3164 10.0635C38.4531 10.0635 38.585 10.0977 38.7119 10.166C38.8438 10.2344 38.9097 10.3467 38.9097 10.5029C38.9097 10.6543 38.8853 10.8032 38.8364 10.9497C38.7876 11.0913 38.729 11.2231 38.6606 11.3452C38.563 11.521 38.4214 11.7017 38.2358 11.8872C37.7231 12.3706 37.2251 12.8149 36.7417 13.2202C36.2632 13.6206 35.7676 13.9648 35.2549 14.2529C34.1709 14.8584 32.9697 15.1611 31.6514 15.1611C30.9141 15.1611 30.2744 14.9731 29.7324 14.5972C29.5078 14.4409 29.3345 14.2798 29.2124 14.1138C29.0952 13.9429 29.0366 13.811 29.0366 13.7183C29.0366 13.6206 29.0684 13.5205 29.1318 13.418C29.1953 13.3105 29.2808 13.2007 29.3882 13.0884C29.4956 12.9761 29.6177 12.8638 29.7544 12.7515C29.896 12.6392 30.04 12.5391 30.1865 12.4512C30.5283 12.251 30.7822 12.1509 30.9482 12.1509C31.1191 12.1509 31.2485 12.1729 31.3364 12.2168C31.4243 12.2559 31.5049 12.2998 31.5781 12.3486C31.7783 12.4854 31.9199 12.5537 32.0029 12.5537C32.2031 12.5537 32.3032 12.417 32.3032 12.1436C32.3032 11.8896 32.1689 11.5845 31.9004 11.228C31.793 11.0815 31.6807 10.9375 31.5635 10.7959C31.4463 10.6543 31.3486 10.5151 31.2705 10.3784C31.1143 10.5591 30.9189 10.7446 30.6846 10.9351L29.9741 11.5356C29.481 11.9604 29.0244 12.1631 28.6045 12.1436C28.3604 12.124 28.2383 11.853 28.2383 11.3306C28.2383 11.2378 28.2456 11.1475 28.2603 11.0596C28.2847 10.9082 28.4336 10.7251 28.707 10.5103C28.9805 10.2954 29.1782 10.1489 29.3003 10.0708C29.4272 9.98779 29.5347 9.91455 29.6226 9.85107L30.3989 9.32373C30.3989 8.82568 30.687 8.36914 31.2632 7.9541C31.8101 7.56348 32.3521 7.36816 32.8892 7.36816C33.231 7.36816 33.4824 7.53418 33.6436 7.86621ZM47.8452 9.6167C48.0796 9.6167 48.1968 9.74854 48.1968 10.0122C48.1968 10.188 48.1357 10.4102 48.0137 10.6787C47.8965 10.9424 47.7256 11.1914 47.501 11.4258C47.2764 11.6553 47.0176 11.8945 46.7246 12.1436C46.4365 12.3926 46.0972 12.6538 45.7065 12.9272C45.3208 13.2007 44.8936 13.4717 44.4248 13.7402C43.9561 14.0088 43.458 14.2505 42.9307 14.4653C41.7637 14.9438 40.6333 15.1831 39.5396 15.1831C38.7046 15.1831 37.9746 14.9658 37.3496 14.5312C36.6953 14.0771 36.3682 13.5254 36.3682 12.876C36.3682 11.8555 36.9175 10.8862 38.0161 9.96826C38.9634 9.17725 40.0791 8.56445 41.3633 8.12988C42.1445 7.86621 42.8062 7.73438 43.3481 7.73438C43.7876 7.73438 44.1587 7.8418 44.4614 8.05664C44.7837 8.29102 44.9448 8.60596 44.9448 9.00146C44.9448 9.62158 44.4541 10.3076 43.4727 11.0596C43.3164 11.1816 43.1748 11.2842 43.0479 11.3672L42.7842 11.543C42.2959 11.8848 41.5537 12.2681 40.5576 12.6929C40.8652 12.854 41.1509 12.9346 41.4146 12.9346C41.6831 12.9346 41.9224 12.9028 42.1323 12.8394C42.3472 12.7759 42.5889 12.6855 42.8574 12.5684C43.126 12.4512 43.4116 12.312 43.7144 12.1509C44.022 11.9849 44.332 11.8042 44.6445 11.6089C45.3428 11.1743 45.9482 10.73 46.4609 10.2759C46.7295 10.0269 47.0713 9.8291 47.4863 9.68262C47.623 9.63867 47.7427 9.6167 47.8452 9.6167ZM39.7666 11.6748L40.1694 11.4697C40.3013 11.4014 40.4185 11.3379 40.521 11.2793C41.5073 10.7129 42.0688 10.3638 42.2056 10.2319C42.3423 10.1001 42.4106 10.0098 42.4106 9.96094C42.4106 9.90723 42.396 9.84619 42.3667 9.77783C42.3374 9.70947 42.2983 9.64844 42.2495 9.59473C42.1323 9.45801 42.0078 9.38965 41.876 9.38965C41.7441 9.38965 41.5977 9.41406 41.4365 9.46289C41.2803 9.51172 41.1216 9.58008 40.9604 9.66797C40.7993 9.75098 40.6431 9.85352 40.4917 9.97559C40.3452 10.0928 40.2158 10.2197 40.1035 10.3564C39.8447 10.6641 39.7153 10.9302 39.7153 11.1548C39.7153 11.3794 39.7324 11.5527 39.7666 11.6748ZM60.333 10.9863C60.333 11.7041 60.5576 12.063 61.0068 12.063C61.3193 12.063 61.8589 11.7896 62.6255 11.2427C63.3188 10.73 63.7314 10.4077 63.8633 10.2759C64.166 10.022 64.4834 9.89502 64.8154 9.89502C64.957 9.89502 65.0767 9.94385 65.1743 10.0415C65.2769 10.1343 65.3281 10.2759 65.3281 10.4663C65.3281 10.6567 65.2817 10.8301 65.189 10.9863C65.0962 11.1426 64.9766 11.3037 64.8301 11.4697C64.6885 11.6357 64.5103 11.8213 64.2954 12.0264C64.0854 12.2314 63.8438 12.4487 63.5703 12.6782C63.2969 12.9028 62.9966 13.1274 62.6694 13.3521C62.3472 13.5767 62.0127 13.7793 61.666 13.96C60.8848 14.3604 60.1792 14.5605 59.5493 14.5605C58.8267 14.5605 58.3359 14.2334 58.0771 13.5791C57.9258 13.2031 57.8501 12.7515 57.8501 12.2241L55.7188 13.667C54.2588 14.6924 53.3896 15.2368 53.1113 15.3003C52.9697 15.3345 52.8257 15.3516 52.6792 15.3516C52.5376 15.3516 52.4033 15.3369 52.2764 15.3076C52.1494 15.2832 52.0371 15.2393 51.9395 15.1758C51.7148 15.0439 51.6025 14.8486 51.6025 14.5898C51.6025 14.4873 51.6709 14.2383 51.8076 13.8428L52.4375 12.1143C52.6328 11.5576 52.7305 11.2231 52.7305 11.1108C52.7305 11.0718 52.7061 11.0522 52.6572 11.0522C52.6084 11.0522 52.5181 11.1035 52.3862 11.2061C52.2544 11.3086 52.0957 11.4404 51.9102 11.6016L50.167 13.125L49.2515 13.8867C48.314 14.6338 47.5498 15.0073 46.959 15.0073C46.6807 15.0073 46.3999 14.8828 46.1167 14.6338C45.8091 14.3701 45.6553 14.0527 45.6553 13.6816C45.6553 13.3105 45.6919 12.9053 45.7651 12.4658C45.8335 12.0264 45.9336 11.604 46.0654 11.1987C46.1973 10.7886 46.3608 10.4053 46.5562 10.0488C46.7515 9.6875 46.9736 9.375 47.2227 9.11133C47.7598 8.53516 48.3921 8.24707 49.1196 8.24707C49.8521 8.24707 50.2183 8.46191 50.2183 8.8916C50.2183 9.07715 50.1182 9.36035 49.918 9.74121C49.4932 10.5811 49.2808 11.0352 49.2808 11.1035C49.2808 11.167 49.3003 11.2183 49.3394 11.2573C49.3833 11.2915 49.4297 11.3086 49.4785 11.3086C49.5811 11.3086 49.7275 11.2256 49.918 11.0596C51.1729 9.96094 51.9614 9.27979 52.2837 9.01611C52.6108 8.75244 52.9258 8.52051 53.2285 8.32031C53.9219 7.86621 54.4736 7.63916 54.8838 7.63916C55.2207 7.63916 55.4941 7.69287 55.7041 7.80029C56.0703 7.99072 56.2534 8.20557 56.2534 8.44482C56.2534 8.68408 56.2192 8.95508 56.1509 9.25781C56.0874 9.56055 56.0166 9.85352 55.9385 10.1367L55.7188 10.8838C55.6504 11.0986 55.6162 11.2646 55.6162 11.3818C55.6162 11.4941 55.665 11.5503 55.7627 11.5503C55.9971 11.5503 56.4634 11.2183 57.1616 10.5542L57.8721 9.8877C58.6875 9.15527 59.3052 8.78906 59.7251 8.78906C59.9253 8.78906 60.1035 8.86719 60.2598 9.02344C60.5332 9.29688 60.6699 9.53613 60.6699 9.74121C60.6699 9.85352 60.6309 10.0049 60.5527 10.1953C60.4062 10.5518 60.333 10.8154 60.333 10.9863ZM71.627 10.4883C71.627 10.752 71.8516 10.8838 72.3008 10.8838C72.6328 10.8838 73.0674 10.7227 73.6045 10.4004L74.1904 10.0781C74.3711 9.97559 74.5273 9.92432 74.6592 9.92432C74.7959 9.92432 74.9033 9.96582 74.9814 10.0488C75.0596 10.1318 75.0986 10.2466 75.0986 10.3931C75.0986 10.5396 75.0498 10.7104 74.9521 10.9058C74.8545 11.0962 74.7202 11.2988 74.5493 11.5137C74.3784 11.7236 74.1782 11.9336 73.9487 12.1436C73.7192 12.3486 73.4727 12.5342 73.209 12.7002C72.623 13.0664 72.0786 13.2495 71.5757 13.2495C71.0435 13.2495 70.6187 13.1592 70.3013 12.9785C70.2036 12.9199 70.1084 12.8589 70.0156 12.7954C69.4932 13.3911 68.7363 13.938 67.7451 14.436C66.6904 14.9634 65.77 15.2271 64.9839 15.2271C64.1587 15.2271 63.5068 14.9023 63.0283 14.2529C62.6426 13.7256 62.4497 13.1909 62.4497 12.6489C62.4497 11.8677 62.8672 11.123 63.7021 10.415C64.3174 9.89746 64.9106 9.50439 65.4819 9.23584C66.0581 8.96729 66.5781 8.75977 67.042 8.61328C68.0234 8.30566 68.9072 8.15186 69.6934 8.15186C70.0449 8.15186 70.3574 8.22021 70.6309 8.35693C70.9092 8.48877 71.1143 8.62305 71.2461 8.75977C71.5586 9.06738 71.7148 9.46045 71.7148 9.93896C71.7148 10.0806 71.7002 10.1904 71.6709 10.2686C71.6416 10.3467 71.627 10.4199 71.627 10.4883ZM65.6357 11.8726L65.6284 11.8945V11.9019C65.6284 12.1118 65.6748 12.2485 65.7676 12.312C65.9922 12.4487 66.229 12.4854 66.478 12.4219C66.7271 12.3535 66.9639 12.2705 67.1885 12.1729C67.7451 11.9336 68.248 11.6309 68.6973 11.2646C68.6191 11.1084 68.5801 10.9473 68.5801 10.7812C68.5801 10.4297 68.7339 10.0781 69.0415 9.72656C68.6509 9.72656 68.1235 9.90967 67.4595 10.2759C66.7271 10.6812 66.1777 11.0986 65.8115 11.5283C65.6943 11.6748 65.6357 11.7896 65.6357 11.8726ZM81.9761 11.0669C81.9761 11.5112 82.1055 11.7334 82.3643 11.7334C82.999 11.7334 83.8242 11.3037 84.8398 10.4443L85.0376 10.2759C85.4331 10.0122 85.7529 9.88037 85.9971 9.88037C86.2461 9.88037 86.4023 9.91699 86.4658 9.99023C86.5342 10.0635 86.5684 10.1807 86.5684 10.3418C86.5684 10.7031 86.3853 11.0864 86.019 11.4917C85.4722 12.1558 84.7227 12.7856 83.7705 13.3813C82.667 14.0747 81.6782 14.4214 80.8042 14.4214C80.1938 14.4214 79.8105 14.082 79.6543 13.4033C79.6104 13.2275 79.5786 13.0591 79.5591 12.8979C79.5103 12.5073 79.459 12.29 79.4053 12.2461C79.3516 12.2021 79.2441 12.207 79.083 12.2607C78.9268 12.3096 78.7388 12.395 78.519 12.5171C78.3042 12.6343 78.0649 12.7783 77.8013 12.9492C76.4048 13.877 75.6016 14.4067 75.3916 14.5386C74.8887 14.8511 74.5493 15.0073 74.3735 15.0073C74.1978 15.0073 74.0244 14.9707 73.8535 14.8975C73.6875 14.8242 73.541 14.7314 73.4141 14.6191C73.1504 14.3701 73.0186 14.1162 73.0186 13.8574C73.0186 12.3779 73.3408 11.084 73.9854 9.97559C74.415 9.22852 74.9424 8.71094 75.5674 8.42285C75.8848 8.27148 76.2266 8.1958 76.5928 8.1958C77.2617 8.1958 77.5962 8.41553 77.5962 8.85498C77.5962 9.12354 77.4375 9.56299 77.1201 10.1733L76.9004 10.6055C76.7441 10.9033 76.6685 11.0718 76.6733 11.1108C76.7026 11.2573 76.7686 11.3306 76.8711 11.3306C76.9834 11.3306 77.1494 11.2476 77.3691 11.0815L78.7168 10.0781L79.3906 9.60938C80.167 9.10156 80.7383 8.84766 81.1045 8.84766C81.2998 8.84766 81.478 8.92578 81.6392 9.08203C81.937 9.36523 82.0859 9.61182 82.0859 9.82178C82.0859 9.89014 82.0786 9.97314 82.064 10.0708C82.0542 10.1685 82.042 10.2734 82.0273 10.3857L81.998 10.73C81.9834 10.8472 81.9761 10.9595 81.9761 11.0669Z" fill="#C7C7D3"/>
</g>
<defs>
<clipPath id="clip0_47_32">
<rect width="88" height="24" fill="white"/>
</clipPath>
</defs>
</svg>
