<svg xmlns="http://www.w3.org/2000/svg" xmlns:xlink="http://www.w3.org/1999/xlink" width="40" height="40" viewBox="0 0 40 40" fill="none"><path   fill="url(#linear_border_MaMvFCJvaAVetYE2aKum4_0)"  d="M8 0L32 0C36.4183 0 40 3.58172 40 8L40 32C40 36.4183 36.4183 40 32 40L8 40C3.58172 40 0 36.4183 0 32L0 8C0 3.58172 3.58172 0 8 0ZM8 1C4.13401 1 1 4.13401 1 8L1 32C1 35.866 4.13401 39 8 39L32 39C35.866 39 39 35.866 39 32L39 8C39 4.13401 35.866 1 32 1L8 1Z"></path><path d="M28.7052 13.856L28.7074 13.8517L20.3058 11.0984L20.011 11.0016C20.0022 10.9995 19.9934 10.9995 19.9846 11.0016L19.692 11.0984L11.2926 13.8517L11.2948 13.856C11.1254 13.9248 11 14.0861 11 14.2862L11 25.2433C11 25.2584 11.0088 25.2734 11.0242 25.2799L19.428 28.7666L19.7184 28.8871L19.9846 28.9968C19.9956 29.0011 20.0066 29.0011 20.0154 28.9968L20.2816 28.8871L20.572 28.7666L28.9758 25.2799C28.9912 25.2734 29 25.2605 29 25.2433L29 14.284C28.9978 14.0861 28.8724 13.9248 28.7052 13.856ZM19.3708 27.5276L12.166 24.5378C12.1506 24.5313 12.1418 24.5184 12.1418 24.5012L12.1418 15.3294C12.1418 15.3014 12.1704 15.2821 12.1968 15.2928L19.4016 18.2827C19.417 18.2892 19.4258 18.3021 19.4258 18.3193L19.4258 27.4911C19.4258 27.519 19.3972 27.5384 19.3708 27.5276ZM19.9824 17.3105L13.1758 14.4841C13.1428 14.469 13.1428 14.4217 13.178 14.4109L20 12.1761L26.8198 14.4109C26.855 14.4217 26.8572 14.469 26.822 14.4841L20.0132 17.3105C20.0044 17.3148 19.9912 17.3148 19.9824 17.3105ZM27.8296 24.5378L20.6248 27.5276C20.5984 27.5384 20.5698 27.519 20.5698 27.4911L20.5698 18.3193C20.5698 18.3042 20.5786 18.2892 20.594 18.2827L27.7988 15.2928C27.8252 15.2821 27.8538 15.3014 27.8538 15.3294L27.8538 24.5012C27.8538 24.5163 27.845 24.5313 27.8296 24.5378Z"   fill="url(#linear_fill_YGJkVAjdpXylGmuFhZwKP)" ></path><defs><linearGradient id="linear_border_MaMvFCJvaAVetYE2aKum4_0" x1="40" y1="0" x2="0" y2="40" gradientUnits="userSpaceOnUse"><stop offset="0" stop-color="#FFFFFF" stop-opacity="0" /><stop offset="0.5" stop-color="#FFFFFF" stop-opacity="0.16" /><stop offset="1" stop-color="#FFFFFF" stop-opacity="0" /></linearGradient><linearGradient id="linear_fill_YGJkVAjdpXylGmuFhZwKP" x1="20" y1="11.3265380859375" x2="20" y2="27.08935546875" gradientUnits="userSpaceOnUse"><stop offset="0" stop-color="#FFFFFF"  /><stop offset="1" stop-color="#FFBC94"  /></linearGradient></defs></svg>